<svg width="398" height="34" viewBox="0 0 398 34" fill="none" xmlns="http://www.w3.org/2000/svg">
<g opacity="0.6" filter="url(#filter0_d_1_12128)">
<path d="M9 5L25.5694 19.1276C28.1862 21.3588 32.036 21.3588 34.6528 19.1276L46.6806 8.87237C49.2973 6.64124 53.1471 6.64124 55.7639 8.87237L67.7917 19.1276C70.4084 21.3588 74.2582 21.3588 76.875 19.1276L88.9028 8.87237C91.5195 6.64124 95.3694 6.64124 97.9861 8.87237L110.014 19.1276C112.631 21.3588 116.48 21.3588 119.097 19.1276L131.125 8.87237C133.742 6.64124 137.592 6.64124 140.208 8.87237L152.236 19.1276C154.853 21.3588 158.703 21.3588 161.319 19.1276L173.347 8.87237C175.964 6.64124 179.814 6.64124 182.431 8.87237L194.458 19.1276C197.075 21.3588 200.925 21.3588 203.542 19.1276L215.569 8.87237C218.186 6.64124 222.036 6.64124 224.653 8.87237L236.681 19.1276C239.297 21.3588 243.147 21.3588 245.764 19.1276L257.792 8.87237C260.408 6.64124 264.258 6.64124 266.875 8.87237L278.903 19.1276C281.52 21.3588 285.369 21.3588 287.986 19.1276L300.014 8.87237C302.631 6.64124 306.48 6.64124 309.097 8.87237L321.125 19.1276C323.742 21.3588 327.592 21.3588 330.208 19.1276L342.236 8.87237C344.853 6.64124 348.703 6.64124 351.319 8.87237L363.347 19.1276C365.964 21.3588 369.814 21.3588 372.431 19.1276L389 5" stroke="#E6E6E9"/>
</g>
<defs>
<filter id="filter0_d_1_12128" x="0.675781" y="0.619507" width="396.648" height="32.6815" filterUnits="userSpaceOnUse" color-interpolation-filters="sRGB">
<feFlood flood-opacity="0" result="BackgroundImageFix"/>
<feColorMatrix in="SourceAlpha" type="matrix" values="0 0 0 0 0 0 0 0 0 0 0 0 0 0 0 0 0 0 127 0" result="hardAlpha"/>
<feOffset dy="4"/>
<feGaussianBlur stdDeviation="4"/>
<feComposite in2="hardAlpha" operator="out"/>
<feColorMatrix type="matrix" values="0 0 0 0 0 0 0 0 0 0 0 0 0 0 0 0 0 0 0.5 0"/>
<feBlend mode="normal" in2="BackgroundImageFix" result="effect1_dropShadow_1_12128"/>
<feBlend mode="normal" in="SourceGraphic" in2="effect1_dropShadow_1_12128" result="shape"/>
</filter>
</defs>
</svg>
