<svg width="136" height="129" viewBox="0 0 136 129" fill="none" xmlns="http://www.w3.org/2000/svg">
<circle cx="94.1226" cy="25.5906" r="4.43853" stroke="#9999A1"/>
<ellipse opacity="0.2" cx="68" cy="84.5" rx="60" ry="19.5" fill="#FFB800"/>
<ellipse cx="68" cy="83" rx="34" ry="13" fill="#FFB800"/>
<path d="M68 32C56.9543 32 48 42.0065 48 53.25C48 64.4054 54.3833 76.531 64.3427 81.1861C66.6644 82.2713 69.3356 82.2713 71.6573 81.1861C81.6167 76.531 88 64.4054 88 53.25C88 42.0065 79.0457 32 68 32Z" fill="#202020"/>
<path d="M68 58.25C71.4518 58.25 74.25 55.4518 74.25 52C74.25 48.5482 71.4518 45.75 68 45.75C64.5482 45.75 61.75 48.5482 61.75 52C61.75 55.4518 64.5482 58.25 68 58.25Z" fill="white"/>
<circle cx="113.544" cy="124.618" r="2.35386" stroke="#FFB800"/>
<circle cx="4.43933" cy="71.6635" r="3.93933" stroke="#FFB800"/>
<circle cx="28.3501" cy="48.2628" r="2.86718" stroke="#9999A1"/>
<circle cx="22.5137" cy="125.035" r="2.86718" stroke="#9999A1"/>
<circle cx="82.2448" cy="115.245" r="1.74478" stroke="#9999A1"/>
<circle cx="133.755" cy="88.6421" r="1.74478" stroke="#9999A1"/>
<g clip-path="url(#clip0_287_9032)">
<circle cx="47.3669" cy="25.3675" r="2.86718" stroke="#9999A1"/>
</g>
<defs>
<clipPath id="clip0_287_9032">
<rect width="10.775" height="10.775" fill="white" transform="translate(42.0432 21.5501)"/>
</clipPath>
</defs>
</svg>
