<svg width="34" height="34" viewBox="0 0 34 34" fill="none" xmlns="http://www.w3.org/2000/svg">
<path d="M12.2549 6.014C14.366 2.22692 15.4216 0.333374 16.9997 0.333374C18.5778 0.333374 19.6333 2.22692 21.7444 6.014L22.2906 6.99376C22.8905 8.06993 23.1904 8.60802 23.6581 8.96305C24.1258 9.31809 24.7083 9.44988 25.8732 9.71345L26.9338 9.95342C31.0332 10.881 33.083 11.3447 33.5706 12.9129C34.0583 14.4811 32.6609 16.1152 29.8662 19.3832L29.1431 20.2287C28.349 21.1574 27.9519 21.6218 27.7732 22.1962C27.5946 22.7707 27.6546 23.3902 27.7747 24.6293L27.884 25.7574C28.3065 30.1177 28.5178 32.2979 27.2411 33.2671C25.9644 34.2363 24.0452 33.3526 20.2069 31.5853L19.2139 31.1281C18.1231 30.6259 17.5778 30.3748 16.9997 30.3748C16.4216 30.3748 15.8762 30.6259 14.7855 31.1281L13.7925 31.5853C9.95413 33.3526 8.03497 34.2363 6.75826 33.2671C5.48154 32.2979 5.69281 30.1177 6.11534 25.7574L6.22465 24.6293C6.34472 23.3902 6.40475 22.7707 6.22611 22.1962C6.04747 21.6218 5.65038 21.1574 4.85621 20.2287L4.13317 19.3833C1.33842 16.1152 -0.0589513 14.4811 0.428709 12.9129C0.91637 11.3447 2.9661 10.881 7.06557 9.95342L8.12615 9.71346C9.29109 9.44988 9.87356 9.31809 10.3412 8.96305C10.8089 8.60802 11.1089 8.06993 11.7088 6.99376L12.2549 6.014Z" fill="#FFB800"/>
</svg>
